<?xml version="1.0" encoding="UTF-8" standalone="no"?>
<!-- Created with Inkscape (http://www.inkscape.org/) -->
<svg
   version="1.1"
   id="svg5"
	xmlns="http://www.w3.org/2000/svg"
	xmlns:svg="http://www.w3.org/2000/svg"
   viewBox="0.47 0 131.35 132.32">
	<defs
    id="defs2">
		<filter id="selectable_hidder_filter" width="1" height="1" x="0" y="0" style="color-interpolation-filters:sRGB;">
			<feComposite id="boolops_hidder_primitive" result="composite1" operator="arithmetic" in2="SourceGraphic" in="BackgroundImage"></feComposite>
		</filter>
	</defs>
	<g id="layer2" style="display:inline;opacity:1">
		<path id="rect998" style="fill:#d7d3d4;fill-opacity:1;stroke-width:0.744521" d="m 6.35,0 h 119.59167 a 5.8622873,5.8622873 47.286962 0 1 5.84362,6.329777 l -9.57058,119.632113 a 6.8782879,6.8782879 137.28696 0 1 -6.85638,6.32978 H 16.933333 a 6.8782876,6.8782876 42.713039 0 1 -6.856382,-6.32978 L 0.50638213,6.329777 A 5.8622876,5.8622876 132.71304 0 1 6.35,0 Z"></path>
	</g>
	<g id="layer3" style="display:inline">
		<path id="rect1592" style="opacity:0.730769;fill:#fe4d01;fill-opacity:1;stroke-width:0.174341" d="M 77.244247,42.507706 59.242081,60.509872 A 2.6302561,2.6302561 67.5 0 0 61.101953,65 H 102.3668 a 2.6302559,2.6302559 112.5 0 0 1.85987,-4.490128 L 86.224503,42.507706 a 6.3500004,6.3500004 180 0 0 -8.980256,0 z M 104.22667,69.490128 86.224503,87.492294 a 6.3500004,6.3500004 1.5925862e-6 0 1 -8.980256,0 L 59.242081,69.490128 A 15.330256,15.330256 22.5 0 0 48.401953,65 H 15.346094 A 5.5779511,5.5779511 131.29664 0 0 9.8146849,71.297016 L 15.056409,111.619 a 7.2289088,7.2289088 41.296638 0 0 7.168591,6.29702 h 87.84102 c 3.50701,0 6.7165,-2.81927 7.16859,-6.29702 1.74724,-13.440657 3.49448,-26.881321 5.24172,-40.321984 C 122.92842,67.81927 120.45193,65 116.94492,65 h -1.87812 a 15.330257,15.330257 157.5 0 0 -10.84013,4.490128 z"></path>
		<rect style="fill:#f3703a;fill-opacity:1;stroke-width:0.264583;filter:url(#selectable_hidder_filter)" id="rect28308" width="33.301785" height="33.301785" x="88.180405" y="-29.559166" transform="matrix(-0.81024149,-0.81024149,0.81024149,-0.81024149,177.1323,139.47935)"></rect>
	</g>
</svg>

